<svg xmlns="http://www.w3.org/2000/svg" viewBox="0 0 227 36" fill="none">
  <path d="M59.1852 26.5426V31.8666H51.6172V26.5426H59.1852Z" fill="white" />
  <path d="M62.357 22.1426H69.529C69.6463 23.0519 70.1303 23.8732 70.981 24.6066C71.8316 25.3399 72.9463 25.9119 74.325 26.3226C75.733 26.7332 77.317 26.9386 79.077 26.9386C80.7196 26.9386 82.0543 26.7919 83.081 26.4986C84.1076 26.2052 84.8556 25.7946 85.325 25.2666C85.8236 24.7386 86.073 24.0786 86.073 23.2866C86.073 22.5532 85.7503 21.9812 85.105 21.5706C84.4596 21.1599 83.4183 20.8372 81.981 20.6026C80.5436 20.3679 78.6076 20.1332 76.173 19.8986C74.2956 19.6932 72.565 19.3999 70.981 19.0186C69.4263 18.6079 68.0623 18.0799 66.889 17.4346C65.745 16.7599 64.8503 15.9386 64.205 14.9706C63.589 14.0026 63.281 12.8439 63.281 11.4946C63.281 9.73458 63.809 8.20925 64.865 6.91858C65.921 5.59858 67.505 4.58658 69.617 3.88258C71.7583 3.17858 74.369 2.82658 77.449 2.82658C82.0836 2.82658 85.6476 3.72124 88.141 5.51058C90.6343 7.29991 91.8516 9.77858 91.793 12.9466H84.929C84.8116 11.3626 84.049 10.2186 82.641 9.51458C81.2623 8.78124 79.4436 8.41458 77.185 8.41458C75.073 8.41458 73.3863 8.67858 72.125 9.20658C70.8636 9.73458 70.233 10.6146 70.233 11.8466C70.233 12.3746 70.3796 12.8292 70.673 13.2106C70.9956 13.5626 71.5383 13.8706 72.301 14.1346C73.093 14.3986 74.149 14.6479 75.469 14.8826C76.789 15.0879 78.461 15.2932 80.485 15.4986C82.4503 15.7039 84.1956 15.9972 85.721 16.3786C87.2463 16.7599 88.537 17.2586 89.593 17.8746C90.649 18.4906 91.441 19.2826 91.969 20.2506C92.5263 21.2186 92.805 22.3919 92.805 23.7706C92.805 25.6186 92.3063 27.2026 91.309 28.5226C90.3116 29.8132 88.757 30.8106 86.645 31.5146C84.5623 32.1892 81.849 32.5266 78.505 32.5266C76.2463 32.5266 74.237 32.3066 72.477 31.8666C70.717 31.4559 69.1916 30.8839 67.901 30.1506C66.6103 29.4172 65.5396 28.5959 64.689 27.6866C63.8383 26.7772 63.2223 25.8386 62.841 24.8706C62.489 23.9026 62.3276 22.9932 62.357 22.1426Z" fill="white" />
  <path d="M94.7245 10.0426H113.468V14.9266H94.7245V10.0426ZM100.752 3.97058H107.44V31.8666H100.752V3.97058Z" fill="white" />
  <path d="M144.341 31.8666H137.653V10.0426H144.341V31.8666ZM137.961 21.2186L138.005 22.8466C137.947 23.2866 137.771 23.9026 137.477 24.6946C137.213 25.4866 136.803 26.3226 136.245 27.2026C135.688 28.0826 134.969 28.9186 134.089 29.7106C133.239 30.5026 132.212 31.1626 131.009 31.6906C129.807 32.1892 128.399 32.4386 126.785 32.4386C125.436 32.4386 124.116 32.2772 122.825 31.9546C121.564 31.6319 120.42 31.1039 119.393 30.3706C118.396 29.6372 117.589 28.6546 116.973 27.4226C116.387 26.1612 116.093 24.5919 116.093 22.7146V10.0426H122.781V21.7026C122.781 23.1399 123.016 24.2692 123.485 25.0906C123.955 25.9119 124.659 26.4986 125.597 26.8506C126.536 27.1732 127.68 27.3346 129.029 27.3346C130.643 27.3346 132.051 27.0119 133.253 26.3666C134.456 25.6919 135.453 24.8852 136.245 23.9466C137.067 23.0079 137.639 22.0986 137.961 21.2186Z" fill="white" />
  <path d="M160.089 32.3946C157.713 32.3946 155.557 31.9252 153.621 30.9866C151.715 30.0186 150.204 28.6839 149.089 26.9826C148.004 25.2812 147.461 23.2866 147.461 20.9986C147.461 18.6226 148.004 16.5839 149.089 14.8826C150.175 13.1812 151.671 11.8759 153.577 10.9666C155.484 10.0279 157.655 9.55858 160.089 9.55858C162.201 9.55858 164.02 9.85191 165.545 10.4386C167.071 10.9959 168.317 11.8026 169.285 12.8586C170.283 13.8852 171.016 15.0879 171.485 16.4666C171.955 17.8452 172.189 19.3559 172.189 20.9986C172.189 22.3479 171.94 23.6972 171.441 25.0466C170.972 26.3959 170.239 27.6279 169.241 28.7426C168.273 29.8572 167.027 30.7519 165.501 31.4266C163.976 32.0719 162.172 32.3946 160.089 32.3946ZM162.377 27.5106C164.196 27.5106 165.795 27.2466 167.173 26.7186C168.552 26.1906 169.623 25.4426 170.385 24.4746C171.177 23.5066 171.573 22.3479 171.573 20.9986C171.573 19.5319 171.177 18.3146 170.385 17.3466C169.623 16.3786 168.552 15.6452 167.173 15.1466C165.795 14.6479 164.196 14.3986 162.377 14.3986C159.825 14.3986 157.845 14.9999 156.437 16.2026C155.029 17.3759 154.325 18.9746 154.325 20.9986C154.325 22.3186 154.648 23.4626 155.293 24.4306C155.968 25.3986 156.907 26.1612 158.109 26.7186C159.341 27.2466 160.764 27.5106 162.377 27.5106ZM171.573 1.24258H178.261V31.8666H172.013C171.896 31.1919 171.793 30.2826 171.705 29.1386C171.617 27.9652 171.573 26.8212 171.573 25.7066V1.24258Z" fill="white" />
  <path d="M190.995 0.142578V5.46658H183.427V0.142578H190.995ZM183.867 10.0426H190.555V31.8666H183.867V10.0426Z" fill="white" />
  <path d="M209.568 32.4386C206.429 32.4386 203.716 32.0132 201.428 31.1626C199.14 30.2826 197.365 29.0066 196.104 27.3346C194.872 25.6332 194.256 23.5359 194.256 21.0426C194.256 18.5199 194.872 16.4079 196.104 14.7066C197.365 12.9759 199.14 11.6852 201.428 10.8346C203.716 9.98391 206.429 9.55858 209.568 9.55858C212.707 9.55858 215.405 9.98391 217.664 10.8346C219.952 11.6852 221.712 12.9759 222.944 14.7066C224.205 16.4079 224.836 18.5199 224.836 21.0426C224.836 23.5359 224.205 25.6332 222.944 27.3346C221.712 29.0066 219.952 30.2826 217.664 31.1626C215.405 32.0132 212.707 32.4386 209.568 32.4386ZM209.568 27.6426C211.24 27.6426 212.707 27.3932 213.968 26.8946C215.229 26.3666 216.212 25.6186 216.916 24.6506C217.649 23.6532 218.016 22.4506 218.016 21.0426C218.016 19.6052 217.649 18.3879 216.916 17.3906C216.212 16.3639 215.229 15.6012 213.968 15.1026C212.736 14.5746 211.269 14.3106 209.568 14.3106C207.925 14.3106 206.459 14.5746 205.168 15.1026C203.877 15.6012 202.865 16.3492 202.132 17.3466C201.399 18.3439 201.032 19.5759 201.032 21.0426C201.032 22.4506 201.384 23.6532 202.088 24.6506C202.821 25.6186 203.833 26.3666 205.124 26.8946C206.415 27.3932 207.896 27.6426 209.568 27.6426Z" fill="white" />
  <path fill-rule="evenodd" clip-rule="evenodd" d="M1.05677 1.94629C0.694262 1.94629 0.400391 2.24016 0.400391 2.60267V32.9699C0.400391 33.3324 0.694261 33.6263 1.05677 33.6263H12.3199C17.4657 33.6263 22.0509 31.2781 25.0167 27.6172C25.2146 27.373 25.6051 27.3909 25.768 27.6588L25.9634 27.9802C28.0921 31.481 31.9481 33.6263 36.1119 33.6263C42.6334 33.6263 47.9201 28.4545 47.9201 22.0748V2.38026C47.9201 2.14059 47.7215 1.94629 47.4765 1.94629H38.6041C38.3591 1.94629 38.1605 2.14059 38.1605 2.38026V22.0748C38.1605 23.1816 37.2433 24.0789 36.1119 24.0789C35.3895 24.0789 34.7206 23.7067 34.3513 23.0994C33.5176 21.7283 32.6974 20.2577 31.8587 18.754C27.429 10.8117 22.4844 1.94629 12.3199 1.94629H1.05677ZM9.20039 11.4937V24.0789H12.3199C15.8724 24.0789 18.7523 21.2616 18.7523 17.7863C18.7523 16.8455 18.5413 15.953 18.163 15.1515L17.8396 14.6197C17.8347 14.6116 17.8374 14.6012 17.8456 14.5964C17.8539 14.5916 17.8566 14.5812 17.8517 14.5732C16.7301 12.7292 14.6725 11.4937 12.3199 11.4937H9.20039Z" fill="#FFFF04" />
</svg>
