<?xml version="1.0" encoding="UTF-8"?>
<svg id="Layer_1" data-name="Layer 1" xmlns="http://www.w3.org/2000/svg" viewBox="0 0 697.58 116.39">
  <defs>
    <style>
      .cls-1 {
        fill: #fff;
      }

      .cls-2 {
        fill: #ff01e8;
      }
    </style>
  </defs>
  <g>
    <path class="cls-1" d="M10.8,113.42l2.97-15.8c9.05,2.16,16.47,3.11,21.74,3.11,11.07,0,15.53-3.92,15.53-16.34v-5.81h-.27c-3.92,5.81-10.4,10.4-20.93,10.4C13.5,88.98,0,77.23,0,56.17S13.64,22.95,29.98,22.95c10.13,0,16.88,4.32,20.79,10.8h.27v-8.78h16.47v62.38c-.27,22.14-12.69,29.03-31.33,29.03-7.02,0-16.34-1.22-25.38-2.97ZM51.04,56.17c0-10.53-6.89-17.55-16.88-17.55s-16.88,7.02-16.88,17.55,6.89,17.55,16.88,17.55,16.88-7.02,16.88-17.55Z"/>
    <path class="cls-1" d="M118.41,23.09v17.82h-1.89c-13.23,0-19.58,5.67-19.58,20.93v25.52h-16.47V24.98h16.34v13.23h.27c3.24-9.72,10.4-15.12,20.66-15.12h.68Z"/>
    <path class="cls-1" d="M193.89,56.17c0,19.58-14.72,33.22-34.57,33.22s-34.57-13.64-34.57-33.22,14.72-33.22,34.57-33.22,34.57,13.64,34.57,33.22ZM141.77,56.17c0,10.67,7.43,17.55,17.55,17.55s17.42-6.89,17.42-17.55-7.29-17.55-17.42-17.55-17.55,6.89-17.55,17.55Z"/>
    <path class="cls-1" d="M281.38,24.98h17.28l-21.74,62.38h-14.72l-14.31-40.78-14.31,40.78h-14.72l-21.74-62.38h17.28l12.02,40.91,13.64-40.91h15.66l13.64,41.18,12.02-41.18Z"/>
    <path class="cls-1" d="M302.04,56.17c0-19.98,14.31-33.22,34.43-33.22,8.51,0,15.39,2.16,21.87,6.21l-7.16,13.64c-4.05-2.57-8.78-4.32-14.45-4.32-10.26,0-17.69,7.16-17.69,17.69s7.43,17.69,17.69,17.69c5.67,0,10.4-1.76,14.45-4.32l7.16,13.64c-6.48,4.05-13.37,6.21-21.87,6.21-20.12,0-34.43-13.23-34.43-33.22Z"/>
    <path class="cls-1" d="M406.68,23.09v17.82h-1.89c-13.23,0-19.58,5.67-19.58,20.93v25.52h-16.47V24.98h16.34v13.23h.27c3.24-9.72,10.4-15.12,20.66-15.12h.68Z"/>
    <path class="cls-1" d="M475.81,56.31v3.24h-46.58c.95,9.59,7.97,15.12,17.55,15.12,8.91,0,15.12-5,18.63-8.51l8.37,12.02c-5.54,5.13-13.91,11.21-27,11.21-20.39,0-33.62-13.23-33.62-33.08s12.83-33.35,32.41-33.35,30.25,12.02,30.25,33.35ZM429.63,48.88h29.44c-.54-7.97-6.21-12.56-14.31-12.56s-13.77,3.92-15.12,12.56Z"/>
    <path class="cls-1" d="M484.72,56.17c0-21.33,13.64-33.22,29.98-33.22,10.13,0,16.88,4.32,20.79,10.8h.27v-8.78h16.47v62.38h-16.47v-8.78h-.27c-3.92,6.48-10.67,10.8-20.79,10.8-16.34,0-29.98-11.88-29.98-33.22ZM535.76,56.17c0-10.53-6.89-17.55-16.88-17.55s-16.88,7.02-16.88,17.55,6.89,17.55,16.88,17.55,16.88-7.02,16.88-17.55Z"/>
    <path class="cls-1" d="M602.72,38.89h-12.83v26.19c0,5,1.76,7.02,6.62,7.02h2.84v15.39h-7.29c-11.75,0-18.77-5.94-18.77-18.5v-30.11h-11.48v-13.91h11.48V0h16.61v24.98h12.83v13.91Z"/>
    <path class="cls-1" d="M671.79,56.31v3.24h-46.58c.95,9.59,7.97,15.12,17.55,15.12,8.91,0,15.12-5,18.63-8.51l8.37,12.02c-5.54,5.13-13.91,11.21-27,11.21-20.39,0-33.62-13.23-33.62-33.08s12.83-33.35,32.41-33.35,30.25,12.02,30.25,33.35ZM625.61,48.88h29.44c-.54-7.97-6.21-12.56-14.31-12.56s-13.77,3.92-15.12,12.56Z"/>
  </g>
  <circle class="cls-2" cx="688.2" cy="78.01" r="9.38" transform="translate(46.09 337.61) rotate(-28.48)"/>
</svg>