
<svg xmlns="http://www.w3.org/2000/svg" version="1.1" xmlns:xlink="http://www.w3.org/1999/xlink" preserveAspectRatio="xMidYMid meet" x="0px" y="0px" width="393px" height="98px" viewBox="72 138 393 98">
<defs>
<g id="Layer0_0_FILL">
<path fill="#00263E" stroke="none" d="
M 75.2 157.05
Q 74.0392578125 159.528125 73.6 162.4 73.35 164.10546875 73.35 165.95 73.35 170.85 75.1 174.3 76.9 177.75 79.65 180.2 82.45 182.65 85.95 184.2 89.45 185.8 92.9 187.05 100.95 189.7 104.3 192.05 107.55 194.35 107.55 197.85 107.55 199.5 107.05 200.85 106.55 202.2 105.2 203.15 103.9 204.15 101.65 204.7 99.45 205.25 96.05 205.25 89.25 205.25 84.55 203.9 79.85 202.5 76.65 200.75
L 72.15 213.5
Q 73.6 214.35 75.65 215.25 77.75 216.15 80.75 217.05 83.65 217.85 87.5 218.35 91.3 219 96.05 219 110.1 219 117.15 213.45 124.15 207.95 124.15 197.95 124.15 192.8 122.8 189.2 121.5 185.6 118.7 182.95 116 180.25 111.85 178.25 107.75 176.2 102.2 174.15 99.55 173.2 97.35 172.35 95.1 171.5 93.4 170.4 91.7 169.35 90.75 168 89.85 166.65 89.85 164.65 89.85 163.4037109375 90.2 162.4 90.8087890625 160.7865234375 92.35 159.8 94.85 158.2 100.65 158.2 105.8 158.2 109.45 159.4 113.15 160.55 116.1 162.1
L 120.7 149.45
Q 120.343359375 149.2478515625 119.95 149.05 118.9802734375 148.5345703125 117.85 148.05 115.334375 146.9740234375 112.1 146.05 106.85 144.5 99.65 144.5 93.6 144.5 88.75 146 86.0203125 146.8078125 83.75 148.05 82.9244140625 148.5189453125 82.15 149.05 81.279296875 149.637109375 80.5 150.3 77.05 153.05 75.2 157.05
M 276 163.45
Q 271.5 161.9 264.65 161.9 262 161.9 259.35 162.15 256.7 162.4 254.4 162.75 252 163.15 250 163.6 248 164.05 246.6 164.45
L 248.6 176.85
Q 251.35 175.8 255.2 175.25 259 174.65 262.95 174.65 268.75 174.65 271.1 177.05 273.55 179.4 273.55 183.35
L 273.55 184.8
Q 272.05 184.4 269.75 184.1 267.45 183.8 264.45 183.8 260 183.8 255.9 184.75 251.75 185.6 248.6 187.55 245.35 189.5 243.5 192.8 241.6 196.1 241.6 200.85 241.6 205.8 243.2 209.15 244.9 212.6 248 214.7 251.05 216.8 255.35 217.75 259.6 218.65 264.9 218.65 273.2 218.65 279.05 217.65 284.95 216.7 288.2 215.95
L 288.2 184.05
Q 288.2 179 287.1 174.85 285.95 170.75 283.25 167.85 280.55 165 276 163.45
M 257.65 197.35
Q 258.5 196.1 259.9 195.4 261.35 194.65 263.25 194.4 265.2 194.15 267.35 194.15 268.85 194.15 270.75 194.35 272.6 194.55 273.55 194.75
L 273.55 206.4
Q 272.25 206.6 270.2 206.7 268.15 206.8 265.9 206.8 261.65 206.8 259.25 205.4 256.85 204.05 256.85 200.45 256.85 198.55 257.65 197.35
M 200.2 164
Q 195.05 165.95 191.5 169.45 187.95 172.9 186.1 177.85 184.25 182.7 184.25 188.7 184.25 200.65 190.2 207.25 196.2 213.9 207.4 213.9 210.45 213.9 213.15 213.35 215.75 212.8 218.2 211.65
L 218.2 213.6
Q 218.2 218.15 215.5 221.05 212.75 223.9 206.15 223.9 201.1 223.9 197.15 223.1 193.2 222.25 189.6 220.85
L 186.9 233.7
Q 191.1 235.1 196.1 236.05 201 236.85 205.95 236.85 220.05 236.85 226.8 230.45 233.55 224 233.55 210.75
L 233.55 165.2
Q 231.5 164.55 228.9 164 226.25 163.45 223.35 163.05 220.45 162.6 217.55 162.35 214.6 162.1 211.85 162.1 205.35 162.1 200.2 164
M 215.55 174.65
Q 217.05 174.75 218.2 175
L 218.2 199.5
Q 216.75 200.3 214.7 200.9 212.65 201.6 210.3 201.6 199.85 201.6 199.85 188.7 199.85 182.5 202.85 178.5 205.85 174.5 211.95 174.5 214 174.5 215.55 174.65
M 170.7 167.85
Q 168 165 163.45 163.45 158.95 161.9 152.1 161.9 149.4 161.9 146.8 162.15 144.2 162.4 141.85 162.75 139.5 163.15 137.45 163.6 135.45 164.05 134.1 164.45
L 136.05 176.85
Q 138.8 175.8 142.65 175.25 146.45 174.65 150.4 174.65 156.25 174.65 158.6 177.05 161 179.4 161 183.35
L 161 184.8
Q 159.55 184.4 157.25 184.1 154.9 183.8 151.9 183.8 147.5 183.8 143.35 184.75 139.2 185.6 136.05 187.55 132.85 189.5 130.95 192.8 129.05 196.1 129.05 200.85 129.05 205.8 130.7 209.15 132.35 212.6 135.45 214.7 138.5 216.8 142.8 217.75 147.1 218.65 152.35 218.65 160.65 218.65 166.5 217.65 172.4 216.7 175.7 215.95
L 175.7 184.05
Q 175.7 179 174.55 174.85 173.4 170.75 170.7 167.85
M 145.1 197.35
Q 146 196.1 147.35 195.4 148.85 194.65 150.75 194.4 152.65 194.15 154.8 194.15 156.3 194.15 158.15 194.35 160.05 194.55 161 194.75
L 161 206.4
Q 159.75 206.6 157.7 206.7 155.6 206.8 153.35 206.8 149.15 206.8 146.7 205.4 144.3 204.05 144.3 200.45 144.3 198.55 145.1 197.35
M 389.8 149.05
L 386.6 149.05
Q 378.254296875 150.3544921875 374.45 159.95
L 374.45 195.4
Q 374.45 200.65 375.45 204.95 376.45 209.25 378.9 212.35 381.35 215.35 385.5 217.1 387.6 217.95 390.25 218.35 392.8 218.75 395.9 218.75 400.8 218.75 404.2 217.9 407.65 217.15 410.45 215.95
L 408.25 204.05
Q 406.1 204.85 403.5 205.3 400.8 205.8 398.35 205.8 393.2 205.8 391.55 202.9 390.65 201.45 390.25 199.55 389.8 197.65 389.8 195.2
L 389.8 176.15 414.9 176.15
Q 417.75 184.65 420.8 192.1 426.1 204.95 431.3 215.25 429.75 219.15 427.55 221.4 425.35 223.6 421.2 223.6 419.15 223.6 417.3 223.3 415.5 223 413.05 222.15
L 410.4 234.4
Q 412.35 235.25 415.4 235.95 418.45 236.55 422.05 236.55 426.4 236.55 429.6 235.55 432.9 234.6 435.45 232.5 438 230.4 440.15 227.1 442.35 223.9 444.5 219.3 450.45 206.4 455.5 192.7 460.6 179 465.2 163.35
L 449.3 163.35
Q 448.3 167.4 447 172.05 445.75 176.75 444.35 181.5 442.9 186.3 441.5 190.85 440.05 195.4 438.7 199.05 437.3 195.4 435.65 190.85 434.1 186.3 432.6 181.5 431 176.75 429.6 172.05 428.25 167.4 427.2 163.35
L 389.8 163.35 389.8 149.05
M 363.4 167.2
Q 359.8201171875 168.5 355.7 168.5 351.602734375 168.5 348.05 167.25
L 348.05 217.5 363.4 217.5 363.4 167.2
M 339.6 164.85
Q 336.25 163.45 332.6 162.65 329 161.9 324.65 161.9 318.1 161.9 312.95 164.15 307.75 166.45 304.2 170.3 300.6 174.15 298.7 179.35 296.75 184.55 296.75 190.4 296.75 196.5 298.4 201.75 299.95 206.9 303.4 210.75 306.85 214.55 312.2 216.75 317.6 219 324.95 219 329.85 219 333.8 218.15 337.85 217.3 340.55 216.15
L 338.4 203.65
Q 335.65 204.75 332.5 205.25 329.3 205.8 326.55 205.8 318.7 205.8 315.55 201.8 312.4 197.75 312.4 190.4 312.4 183.55 315.8 179.3 319.15 175.05 325.95 175.05 329.1 175.05 331.65 175.75 334.25 176.35 336.45 177.15
L 339.6 164.85 Z"/>

<path fill="#FFFFFF" stroke="none" d="
M 386.6 149.05
L 389.8 149.05 389.8 148.85
Q 388.12265625 148.811328125 386.6 149.05 Z"/>
</g>

<g id="Layer0_1_FILL">
<path fill="#FF0099" stroke="none" d="
M 364.8 148.05
Q 364.8 147.8767578125 364.8 147.7 364.8 143.45 362.1 141.05 359.4 138.65 355.65 138.65 351.9 138.65 349.2 141.05 346.5 143.45 346.5 147.7 346.5 147.8767578125 346.5 148.05 346.613671875 152.003125 349.2 154.35 351.9 156.8 355.65 156.8 359.4 156.8 362.1 154.35 364.686328125 152.003125 364.8 148.05 Z"/>
</g>
</defs>

<g transform="matrix( 1, 0, 0, 1, 0,0) ">
<use xlink:href="#Layer0_0_FILL"/>
</g>

<g transform="matrix( 1, 0, 0, 1, 0,0) ">
<use xlink:href="#Layer0_1_FILL"/>
</g>
</svg>
